# xmcd
#
# Track frame offsets:
#	150
#	15905
#	35465
#	57545
#	74950
#	90615
#	107680
#	129795
#	147625
#	161280
#	183330
#	201000
#	217790
#	245070
#	268295
#	314915
#
# Disc length: 4426 seconds
#
# Revision: 0
# Processed by: cddbd v1.4PL0 Copyright (c) Steve Scherf et al.
# Submitted via: audiograbber 1.81.03
#
DISCID=f0114810
DTITLE=Various Artist - Knights Of The Blues Table
DYEAR=1997
DGENRE=Blues
TTITLE0=Jack Bruce - Send For Me
TTITLE1=Georgie Fame - If You Live
TTITLE2=Duffy Power - Go Down Sunshine
TTITLE3=Chris Jagger (Feat. Mick Jagger) - Racketeers Blues
TTITLE4=Pete Brown - Rocks In My Bed
TTITLE5=Brian Knight - Hesitation Blues
TTITLE6=Miller Anderson - Don't Let Me Be Misunderstood
TTITLE7=Maggie Bell - Blind Man
TTITLE8=Peter Green - Travellin' Riverside Blues
TTITLE9=Clem Clempson - I've Got News For You
TTITLE10=Nine Below Zero - Nine Below Zero
TTITLE11=The Pretty Things - Judgement Day
TTITLE12=Paul Jones (& Otis Grand) - Play On Little Girl
TTITLE13=Mick Clarke - One More Mile
TTITLE14=Mick Taylor - You Shook Me
TTITLE15=Cyril Davis - K.C. Moan
EXTD=VICEROY-20.05.1997 -(290.25.001)
EXTT0=
EXTT1=
EXTT2=
EXTT3=
EXTT4=
EXTT5=
EXTT6=
EXTT7=
EXTT8=
EXTT9=
EXTT10=
EXTT11=
EXTT12=
EXTT13=
EXTT14=
EXTT15=
PLAYORDER=
